<?xml version="1.0" standalone="no"?>
<!DOCTYPE svg PUBLIC "-//W3C//DTD SVG 20010904//EN"
 "http://www.w3.org/TR/2001/REC-SVG-20010904/DTD/svg10.dtd">
<svg version="1.0" xmlns="http://www.w3.org/2000/svg"
 width="360.000000pt" height="360.000000pt" viewBox="0 0 360.000000 360.000000"
 preserveAspectRatio="xMidYMid meet">

<g transform="translate(0.000000,360.000000) scale(0.100000,-0.100000)"
fill="#000000" stroke="none">
<path d="M2387 2892 c-37 -38 -37 -38 -37 -125 l0 -87 -83 0 c-81 0 -84 -1
-115 -33 l-32 -33 0 -147 0 -147 -320 0 -320 0 0 151 0 151 -29 29 c-28 28
-33 29 -120 29 l-91 0 0 91 c0 87 -1 92 -29 120 l-29 29 -159 0 -159 0 -32
-33 -32 -33 0 -155 0 -155 33 -32 c32 -31 36 -32 120 -32 l87 0 0 -80 0 -80
-88 0 c-86 0 -89 -1 -120 -33 -31 -32 -32 -36 -32 -115 l0 -82 -88 0 -88 0
-37 -37 c-35 -37 -36 -40 -39 -123 l-3 -85 -82 -3 c-81 -3 -82 -3 -117 -42
l-36 -40 0 -381 0 -381 39 -39 39 -39 150 0 151 0 36 31 35 31 0 209 c0 202 1
209 20 209 19 0 20 -7 20 -211 l0 -211 29 -29 c28 -28 33 -29 120 -29 l91 0 0
-85 c0 -79 2 -87 29 -117 l29 -33 282 0 282 0 29 33 29 32 0 159 0 159 -35 31
-36 31 -204 0 c-176 0 -205 2 -205 15 0 13 69 15 560 15 553 0 560 0 560 -20
0 -19 -7 -20 -208 -20 l-208 0 -32 -33 -32 -33 0 -158 0 -158 29 -29 29 -29
280 0 280 0 31 35 c29 34 31 41 31 115 l0 80 84 0 c46 0 92 3 101 6 38 15 45
54 45 274 0 203 1 210 20 210 19 0 20 -7 20 -210 l0 -210 29 -32 29 -33 161
-3 160 -3 38 35 38 34 0 401 0 400 -29 30 c-29 30 -33 31 -118 31 l-88 0 0 90
c0 85 -2 91 -29 122 -28 32 -32 33 -120 36 l-91 4 0 90 c0 86 -1 91 -29 119
-28 28 -33 29 -120 29 l-91 0 0 70 0 70 85 0 c83 0 86 1 123 34 l37 34 0 161
0 160 -34 35 -35 36 -161 0 -161 0 -37 -38z m343 -61 c5 -11 10 -70 10 -131 0
-61 -5 -120 -10 -131 -10 -17 -22 -19 -113 -19 -67 0 -107 -4 -115 -12 -15
-15 -17 -245 -2 -268 7 -11 36 -16 117 -20 l108 -5 3 -104 c1 -58 8 -111 14
-118 7 -9 40 -13 107 -13 62 0 101 -4 109 -12 8 -8 12 -47 12 -109 0 -128 1
-129 130 -129 80 0 99 -3 104 -16 3 -9 6 -175 6 -369 0 -308 -2 -356 -16 -369
-12 -13 -40 -16 -138 -16 -81 0 -126 4 -134 12 -9 9 -12 74 -12 233 0 159 -3
224 -12 233 -7 7 -43 12 -90 12 -66 0 -79 -3 -88 -19 -6 -12 -10 -109 -10
-245 l0 -225 -112 -3 -113 -3 -5 -110 -5 -110 -255 0 -255 0 0 135 0 135 225
5 c124 3 231 9 238 13 16 11 17 158 0 175 -17 17 -1239 17 -1256 0 -17 -17
-16 -152 1 -167 9 -7 93 -12 238 -13 l224 -3 3 -134 c2 -101 -1 -136 -10 -143
-22 -13 -482 -10 -496 4 -8 8 -12 47 -12 109 0 67 -4 100 -13 107 -7 6 -60 13
-118 14 l-104 3 -3 224 c-1 145 -6 229 -13 238 -16 18 -162 18 -178 0 -7 -9
-12 -93 -13 -238 l-3 -224 -129 -3 c-86 -2 -133 1 -142 9 -19 16 -21 718 -2
737 8 8 46 12 104 12 119 0 124 6 124 135 0 57 4 95 12 103 8 8 47 12 108 12
61 0 102 5 113 13 13 9 17 33 19 112 l3 100 105 5 c58 3 111 9 118 13 18 12
17 280 -1 295 -7 6 -60 13 -118 14 l-104 3 0 135 0 135 135 0 135 0 5 -107 c3
-58 9 -110 13 -115 5 -4 57 -10 115 -13 l107 -5 5 -168 c4 -134 8 -170 20
-177 24 -15 742 -13 763 3 14 10 17 36 19 177 l3 165 100 5 c55 3 106 9 113
13 8 6 12 40 12 111 0 66 4 106 12 114 8 8 55 12 145 12 121 0 133 -2 143 -19z"/>
<path d="M1104 2070 c-12 -4 -31 -21 -43 -36 -19 -25 -21 -39 -21 -176 l0
-150 34 -34 34 -34 159 0 159 0 27 28 27 28 0 161 0 161 -35 31 -36 31 -142
-1 c-78 0 -152 -4 -163 -9z m280 -76 c14 -5 16 -27 16 -140 l0 -135 -137 3
-138 3 -3 124 c-2 82 1 128 9 137 9 10 40 14 124 14 63 0 120 -3 129 -6z"/>
<path d="M2184 2071 c-12 -5 -31 -22 -43 -37 -19 -25 -21 -39 -21 -175 l0
-148 31 -36 31 -35 162 0 162 0 32 33 32 33 0 152 0 152 -29 32 -29 33 -154 2
c-84 1 -163 -2 -174 -6z m295 -85 c8 -9 11 -55 9 -137 l-3 -124 -140 0 -140 0
-3 124 c-2 82 1 128 9 137 9 11 42 14 134 14 92 0 125 -3 134 -14z"/>
</g>
</svg>
